<svg width="1920" height="1080" viewBox="0 0 1920 1080" fill="none" xmlns="http://www.w3.org/2000/svg">
<g clip-path="url(#clip0_1240_6620)">
<rect width="1920" height="1080" fill="#00010D"/>
<g clip-path="url(#clip1_1240_6620)">
<path d="M77.894 1021.09C104.718 976.811 23.7072 954.241 17.3538 1001.75C16.067 1011.5 22.7926 1018.63 30.7603 1023.16C39.1849 1028.35 48.4611 1033.02 56.019 1040.22C73.5004 1055.68 75.8013 1079.75 54.7689 1092.85C72.9945 1078.6 70.0284 1057.26 53.0932 1043.49C40.7031 1031.66 17.4411 1028.24 12.4355 1009.64C8.26972 990.25 25.0387 970.829 44.4908 970.549C73.0627 968.712 98.2306 994.917 78.0218 1021.15L77.894 1021.09Z" fill="url(#paint0_linear_1240_6620)" fill-opacity="0.75"/>
<path d="M-3.39968 1050.22C-30.224 1094.5 50.7871 1117.07 57.1405 1069.56C58.4274 1059.81 51.7017 1052.68 43.734 1048.15C35.3094 1042.96 26.0333 1038.29 18.4753 1031.09C0.993949 1015.63 -1.30701 991.56 19.7254 978.456C1.4843 992.767 4.45047 1014.1 21.3547 1027.98C33.7293 1039.87 56.9913 1043.28 62.1324 1061.93C66.3291 1081.21 49.5911 1100.52 30.1313 1100.83C1.53614 1102.74 -23.6704 1076.67 -3.39968 1050.22Z" fill="url(#paint1_linear_1240_6620)" fill-opacity="0.75"/>
<path d="M15.6127 1108.67C56.0222 1120.2 98.1322 1096.8 109.668 1056.39C121.204 1015.98 97.7969 973.868 57.3873 962.332C16.9778 950.796 -25.1322 974.203 -36.6679 1014.61C-48.2037 1055.02 -24.7968 1097.13 15.6127 1108.67Z" stroke="url(#paint2_linear_1240_6620)" stroke-opacity="0.75" stroke-miterlimit="10"/>
</g>
<g clip-path="url(#clip2_1240_6620)">
<path d="M254.895 524.156C255.145 472.389 174.054 494.671 193.027 538.691C196.931 547.71 206.369 550.375 215.533 550.166C225.427 550.287 235.784 549.525 245.967 551.814C268.906 556.084 283.254 575.551 271.949 597.603C280.254 576.005 266.744 559.231 245.137 556.121C228.428 552.342 206.718 561.368 192.862 547.984C179.322 533.494 183.723 508.215 200.265 497.977C223.829 481.714 258.887 491.255 255.038 524.147L254.895 524.156Z" fill="url(#paint3_linear_1240_6620)" fill-opacity="0.75"/>
<path d="M200.14 590.936C199.89 642.702 280.98 620.42 262.008 576.4C258.103 567.381 248.666 564.716 239.502 564.925C229.608 564.805 219.251 565.567 209.068 563.277C186.129 559.008 171.781 539.541 183.086 517.489C174.796 539.141 188.306 555.915 209.941 559.133C226.665 562.967 248.375 553.941 262.367 567.289C275.878 581.67 271.448 606.84 254.913 617.105C231.371 633.45 196.349 624.045 200.14 590.936Z" fill="url(#paint4_linear_1240_6620)" fill-opacity="0.75"/>
<path d="M246.491 631.295C287.083 620.419 311.172 578.695 300.295 538.103C289.419 497.511 247.695 473.422 207.103 484.299C166.511 495.175 142.422 536.899 153.299 577.491C164.175 618.083 205.899 642.172 246.491 631.295Z" stroke="url(#paint5_linear_1240_6620)" stroke-opacity="0.75" stroke-miterlimit="10"/>
</g>
<g clip-path="url(#clip3_1240_6620)">
<path d="M908.347 237.846C952.335 210.553 890.372 153.695 863.16 193.157C857.594 201.257 860.351 210.668 865.397 218.32C870.552 226.766 876.701 235.136 880.172 244.979C888.743 266.68 879.875 289.179 855.186 291.319C877.896 286.879 884.928 266.521 876.082 246.565C870.406 230.401 851.224 216.805 855.2 197.955C860.282 178.785 884.035 169.082 901.498 177.656C927.795 188.977 938.34 223.747 908.431 237.963L908.347 237.846Z" fill="url(#paint6_linear_1240_6620)" fill-opacity="0.75"/>
<path d="M822.68 226.943C778.692 254.236 840.655 311.093 867.866 271.632C873.433 263.532 870.675 254.121 865.63 246.468C860.475 238.023 854.326 229.653 850.855 219.81C842.284 198.109 851.152 175.61 875.84 173.47C853.092 177.952 846.06 198.309 854.83 218.348C860.468 234.553 879.65 248.149 875.776 267.095C870.772 286.182 847.095 295.802 829.613 287.249C803.258 275.99 792.617 241.323 822.68 226.943Z" fill="url(#paint7_linear_1240_6620)" fill-opacity="0.75"/>
<path d="M813.117 287.654C843.899 316.262 892.045 314.501 920.654 283.719C949.262 252.937 947.501 204.791 916.719 176.182C885.937 147.573 837.791 149.335 809.182 180.117C780.573 210.899 782.335 259.045 813.117 287.654Z" stroke="url(#paint8_linear_1240_6620)" stroke-opacity="0.75" stroke-miterlimit="10"/>
</g>
<g clip-path="url(#clip4_1240_6620)">
<path d="M1926.96 1037.46C1970.95 1010.16 1908.98 953.306 1881.77 992.768C1876.2 1000.87 1878.96 1010.28 1884.01 1017.93C1889.16 1026.38 1895.31 1034.75 1898.78 1044.59C1907.35 1066.29 1898.49 1088.79 1873.8 1090.93C1896.51 1086.49 1903.54 1066.13 1894.69 1046.18C1889.02 1030.01 1869.83 1016.42 1873.81 997.566C1878.89 978.396 1902.65 968.693 1920.11 977.267C1946.41 988.588 1956.95 1023.36 1927.04 1037.57L1926.96 1037.46Z" fill="url(#paint9_linear_1240_6620)" fill-opacity="0.75"/>
<path d="M1841.29 1026.55C1797.3 1053.85 1859.27 1110.7 1886.48 1071.24C1892.04 1063.14 1889.29 1053.73 1884.24 1046.08C1879.09 1037.63 1872.94 1029.26 1869.47 1019.42C1860.89 997.719 1869.76 975.22 1894.45 973.081C1871.7 977.562 1864.67 997.92 1873.44 1017.96C1879.08 1034.16 1898.26 1047.76 1894.39 1066.71C1889.38 1085.79 1865.71 1095.41 1848.22 1086.86C1821.87 1075.6 1811.23 1040.93 1841.29 1026.55Z" fill="url(#paint10_linear_1240_6620)" fill-opacity="0.75"/>
<path d="M1831.73 1087.26C1862.51 1115.87 1910.66 1114.11 1939.26 1083.33C1967.87 1052.55 1966.11 1004.4 1935.33 975.792C1904.55 947.184 1856.4 948.945 1827.79 979.727C1799.18 1010.51 1800.95 1058.66 1831.73 1087.26Z" stroke="url(#paint11_linear_1240_6620)" stroke-opacity="0.75" stroke-miterlimit="10"/>
</g>
<g clip-path="url(#clip5_1240_6620)">
<path d="M1260.54 745.06C1286.22 700.112 1204.66 679.624 1199.52 727.282C1198.49 737.056 1205.39 744.018 1213.47 748.343C1222.03 753.315 1231.42 757.747 1239.16 764.749C1257.03 779.75 1259.95 803.757 1239.26 817.395C1257.11 802.676 1253.6 781.426 1236.32 768.091C1223.63 756.581 1200.29 753.761 1194.81 735.292C1190.15 716.016 1206.41 696.172 1225.85 695.394C1254.37 692.826 1280.2 718.378 1260.67 745.122L1260.54 745.06Z" fill="url(#paint12_linear_1240_6620)" fill-opacity="0.75"/>
<path d="M1180.02 776.268C1154.34 821.216 1235.9 841.704 1241.03 794.046C1242.07 784.272 1235.16 777.31 1227.08 772.984C1218.53 768.012 1209.14 763.581 1201.4 756.578C1183.53 741.578 1180.61 717.571 1201.3 703.932C1183.43 718.706 1186.94 739.956 1204.2 753.4C1216.87 764.965 1240.21 767.785 1245.83 786.289C1250.52 805.456 1234.28 825.191 1214.83 825.996C1186.3 828.646 1160.43 803.23 1180.02 776.268Z" fill="url(#paint13_linear_1240_6620)" fill-opacity="0.75"/>
<path d="M1200.52 834.207C1241.21 844.704 1282.71 820.227 1293.21 779.535C1303.7 738.844 1279.23 697.347 1238.54 686.85C1197.84 676.352 1156.35 700.83 1145.85 741.521C1135.35 782.213 1159.83 823.71 1200.52 834.207Z" stroke="url(#paint14_linear_1240_6620)" stroke-opacity="0.75" stroke-miterlimit="10"/>
</g>
<g clip-path="url(#clip6_1240_6620)">
<path d="M1766.3 99.8307C1747.65 51.538 1680.27 101.86 1713.99 135.928C1720.91 142.902 1730.67 141.941 1739.13 138.405C1748.39 134.909 1757.75 130.422 1768.07 128.84C1790.99 124.45 1811.45 137.343 1808.96 161.999C1808.82 138.86 1790.12 128.168 1768.87 133.153C1751.93 135.728 1735.01 152.05 1717.23 144.641C1699.33 136.087 1694.21 110.944 1705.88 95.3782C1721.89 71.6417 1758.01 67.7399 1766.43 99.7698L1766.3 99.8307Z" fill="url(#paint15_linear_1240_6620)" fill-opacity="0.75"/>
<path d="M1739.67 181.98C1758.31 230.273 1825.69 179.951 1791.97 145.883C1785.05 138.909 1775.29 139.869 1766.83 143.406C1757.58 146.902 1748.21 151.389 1737.89 152.971C1714.98 157.361 1694.52 144.467 1697 119.811C1697.18 142.996 1715.88 153.688 1737.19 148.794C1754.17 146.264 1771.09 129.942 1788.98 137.268C1806.81 145.731 1811.86 170.783 1800.21 186.372C1784.25 210.176 1748.21 214.191 1739.67 181.98Z" fill="url(#paint16_linear_1240_6620)" fill-opacity="0.75"/>
<path d="M1797.54 202.656C1831.37 177.724 1838.59 130.089 1813.66 96.2599C1788.72 62.4305 1741.09 55.2171 1707.26 80.1485C1673.43 105.08 1666.22 152.715 1691.15 186.544C1716.08 220.374 1763.71 227.587 1797.54 202.656Z" stroke="url(#paint17_linear_1240_6620)" stroke-opacity="0.75" stroke-miterlimit="10"/>
</g>
<g clip-path="url(#clip7_1240_6620)">
<path d="M213.138 146.075C251.251 111.043 179.755 66.7654 160.397 110.617C156.442 119.614 160.91 128.344 167.296 134.919C173.939 142.253 181.543 149.326 186.792 158.347C199.267 178.065 194.76 201.824 170.906 208.539C192.386 199.934 195.49 178.621 183.071 160.669C174.474 145.85 153.089 136.079 153.473 116.818C154.883 97.036 176.405 83.0653 195.163 88.2249C223.113 94.4329 239.969 126.62 213.242 146.174L213.138 146.075Z" fill="url(#paint18_linear_1240_6620)" fill-opacity="0.75"/>
<path d="M126.943 151.371C88.8299 186.403 160.326 230.681 179.684 186.83C183.638 177.832 179.171 169.102 172.784 162.528C166.142 155.194 158.538 148.121 153.289 139.099C140.814 119.382 145.321 95.6222 169.175 88.907C147.665 97.5603 144.561 118.873 156.92 136.921C165.487 151.787 186.872 161.559 186.607 180.895C185.257 200.581 163.795 214.456 145.022 209.32C117.028 203.184 100.097 171.116 126.943 151.371Z" fill="url(#paint19_linear_1240_6620)" fill-opacity="0.75"/>
<path d="M128.892 212.8C164.478 235.153 211.447 224.426 233.8 188.84C256.153 153.254 245.426 106.286 209.84 83.9325C174.254 61.5794 127.286 72.3066 104.932 107.892C82.5794 143.478 93.3066 190.447 128.892 212.8Z" stroke="url(#paint20_linear_1240_6620)" stroke-opacity="0.75" stroke-miterlimit="10"/>
</g>
<g clip-path="url(#clip8_1240_6620)">
<path d="M520.362 195.084C527.87 160.829 470.995 164.087 477.319 195.936C478.626 202.465 484.499 205.568 490.599 206.73C497.136 208.213 504.104 209.177 510.525 212.139C525.114 218.22 531.857 233.15 521.241 246.154C529.805 233.025 523.236 219.998 509.364 214.874C498.832 210 483.171 212.9 475.891 202.069C468.978 190.55 475.478 174.429 487.888 169.994C505.803 162.564 527.673 173.856 520.458 195.098L520.362 195.084Z" fill="url(#paint21_linear_1240_6620)" fill-opacity="0.75"/>
<path d="M474.62 231.552C467.112 265.807 523.987 262.549 517.663 230.7C516.356 224.171 510.483 221.068 504.383 219.906C497.846 218.423 490.877 217.459 484.457 214.498C469.868 208.416 463.125 193.486 473.741 180.482C465.178 193.649 471.748 206.676 485.623 211.877C496.157 216.789 511.818 213.889 519.194 224.715C526.104 236.158 519.599 252.202 507.19 256.657C489.278 264.144 467.413 252.946 474.62 231.552Z" fill="url(#paint22_linear_1240_6620)" fill-opacity="0.75"/>
<path d="M499.598 264.861C528.029 263.414 549.904 239.193 548.457 210.762C547.01 182.331 522.789 160.456 494.358 161.904C465.927 163.351 444.052 187.572 445.499 216.003C446.946 244.434 471.167 266.308 499.598 264.861Z" stroke="url(#paint23_linear_1240_6620)" stroke-opacity="0.75" stroke-miterlimit="10"/>
</g>
<g clip-path="url(#clip9_1240_6620)">
<path d="M701.049 616.057C704.274 581.138 648.235 591.387 658.439 622.213C660.542 628.531 666.753 630.886 672.95 631.286C679.619 631.952 686.654 632.049 693.391 634.195C708.619 638.431 717.152 652.415 708.221 666.629C715.101 652.544 706.974 640.427 692.577 637.053C681.524 633.516 666.34 638.325 657.779 628.475C649.498 617.897 653.96 601.098 665.728 595.165C682.59 585.581 705.685 594.09 701.146 616.059L701.049 616.057Z" fill="url(#paint24_linear_1240_6620)" fill-opacity="0.75"/>
<path d="M660.155 657.89C656.93 692.81 712.969 682.56 702.764 651.734C700.662 645.417 694.45 643.061 688.254 642.661C681.584 641.996 674.55 641.899 667.813 639.752C652.585 635.517 644.052 621.532 652.983 607.318C646.11 621.441 654.236 633.558 668.647 637.007C679.707 640.582 694.89 635.772 703.545 645.606C711.813 656.109 707.338 672.833 695.573 678.785C678.721 688.425 655.642 680.01 660.155 657.89Z" fill="url(#paint25_linear_1240_6620)" fill-opacity="0.75"/>
<path d="M689.052 687.863C717.087 682.92 735.807 656.185 730.863 628.15C725.92 600.115 699.185 581.395 671.15 586.338C643.115 591.282 624.395 618.016 629.338 646.052C634.282 674.087 661.016 692.807 689.052 687.863Z" stroke="url(#paint26_linear_1240_6620)" stroke-opacity="0.75" stroke-miterlimit="10"/>
</g>
<g clip-path="url(#clip10_1240_6620)">
<path d="M1341.68 259.687C1370.55 239.776 1326.76 203.338 1309.64 230.932C1306.14 236.596 1308.31 242.873 1311.98 247.885C1315.74 253.43 1320.18 258.891 1322.85 265.438C1329.36 279.84 1324.1 295.354 1307.47 297.612C1322.69 293.863 1326.78 279.857 1320.14 266.645C1315.76 255.894 1302.34 247.325 1304.41 234.44C1307.22 221.302 1322.97 213.957 1335.07 219.186C1353.24 225.983 1361.51 249.163 1341.74 259.763L1341.68 259.687Z" fill="url(#paint27_linear_1240_6620)" fill-opacity="0.75"/>
<path d="M1283.36 255.121C1254.49 275.032 1298.28 311.469 1315.4 283.876C1318.9 278.212 1316.73 271.935 1313.06 266.923C1309.3 261.377 1304.86 255.916 1302.19 249.37C1295.68 234.968 1300.94 219.453 1317.57 217.195C1302.33 220.974 1298.24 234.98 1304.83 248.25C1309.18 259.03 1322.6 267.6 1320.6 280.546C1317.84 293.625 1302.14 300.912 1290.03 295.698C1271.83 288.945 1263.49 265.838 1283.36 255.121Z" fill="url(#paint28_linear_1240_6620)" fill-opacity="0.75"/>
<path d="M1278.88 296.513C1300.65 314.86 1333.17 312.088 1351.51 290.321C1369.86 268.554 1367.09 236.036 1345.32 217.688C1323.55 199.341 1291.04 202.114 1272.69 223.88C1254.34 245.647 1257.11 278.166 1278.88 296.513Z" stroke="url(#paint29_linear_1240_6620)" stroke-opacity="0.75" stroke-miterlimit="10"/>
</g>
<g clip-path="url(#clip11_1240_6620)">
<path d="M1712.66 781.161C1746.06 770.486 1714.73 722.906 1690.34 744.344C1685.35 748.748 1685.61 755.386 1687.66 761.246C1689.65 767.646 1692.31 774.159 1692.97 781.199C1695.02 796.871 1685.48 810.19 1668.91 807.523C1684.56 808.353 1692.54 796.137 1690.02 781.566C1688.96 770.01 1678.6 757.912 1684.32 746.183C1690.82 734.427 1708.03 731.971 1718.09 740.485C1733.5 752.262 1734.69 776.846 1712.69 781.251L1712.66 781.161Z" fill="url(#paint30_linear_1240_6620)" fill-opacity="0.75"/>
<path d="M1658.17 759.864C1624.77 770.539 1656.1 818.118 1680.49 796.68C1685.48 792.277 1685.22 785.639 1683.17 779.778C1681.17 773.379 1678.52 766.866 1677.86 759.826C1675.81 744.153 1685.35 730.834 1701.92 733.501C1686.23 732.693 1678.26 744.908 1680.71 759.521C1681.74 771.098 1692.1 783.196 1686.43 795.005C1679.99 806.72 1662.85 809.134 1652.78 800.63C1637.32 788.885 1636.05 764.352 1658.17 759.864Z" fill="url(#paint31_linear_1240_6620)" fill-opacity="0.75"/>
<path d="M1641.87 798.175C1657.38 822.05 1689.3 828.835 1713.17 813.331C1737.05 797.826 1743.84 765.902 1728.33 742.027C1712.83 718.152 1680.9 711.367 1657.03 726.871C1633.15 742.376 1626.37 774.299 1641.87 798.175Z" stroke="url(#paint32_linear_1240_6620)" stroke-opacity="0.75" stroke-miterlimit="10"/>
</g>
<g clip-path="url(#clip12_1240_6620)">
<path d="M419.445 910.527C394.769 885.611 366.599 935.127 396.773 947.125C402.963 949.575 408.76 946.331 413.05 941.841C417.847 937.16 422.443 931.833 428.418 928.052C441.451 919.11 457.648 921.562 462.796 937.54C456.429 923.216 441.922 921.653 430.083 930.513C420.269 936.707 414.194 951.429 401.145 951.656C387.718 951.2 377.718 936.984 380.737 924.156C384.234 905.078 405.598 892.855 419.51 910.454L419.445 910.527Z" fill="url(#paint33_linear_1240_6620)" fill-opacity="0.75"/>
<path d="M425.206 968.743C449.882 993.66 478.052 944.143 447.878 932.146C441.688 929.696 435.891 932.94 431.601 937.429C426.804 942.111 422.208 947.437 416.233 951.218C403.2 960.161 387.003 957.709 381.855 941.731C388.256 956.074 402.762 957.637 414.667 948.815C424.514 942.641 430.59 927.918 443.686 927.609C457.047 928.026 466.981 942.205 463.978 955.042C460.53 974.148 439.249 986.419 425.206 968.743Z" fill="url(#paint34_linear_1240_6620)" fill-opacity="0.75"/>
<path d="M466.741 965.874C480.974 941.22 472.527 909.695 447.874 895.461C423.22 881.227 391.695 889.674 377.461 914.328C363.227 938.982 371.674 970.507 396.328 984.741C420.982 998.974 452.507 990.527 466.741 965.874Z" stroke="url(#paint35_linear_1240_6620)" stroke-opacity="0.75" stroke-miterlimit="10"/>
</g>
<g clip-path="url(#clip13_1240_6620)">
<path d="M999.485 1061.8C1006.99 1027.55 950.118 1030.81 956.441 1062.65C957.749 1069.18 963.622 1072.29 969.722 1073.45C976.258 1074.93 983.227 1075.9 989.648 1078.86C1004.24 1084.94 1010.98 1099.87 1000.36 1112.87C1008.93 1099.74 1002.36 1086.72 988.487 1081.59C977.955 1076.72 962.294 1079.62 955.014 1068.79C948.1 1057.27 954.601 1041.15 967.011 1036.71C984.926 1029.28 1006.8 1040.57 999.581 1061.82L999.485 1061.8Z" fill="url(#paint36_linear_1240_6620)" fill-opacity="0.75"/>
<path d="M953.743 1098.27C946.234 1132.53 1003.11 1129.27 996.786 1097.42C995.479 1090.89 989.605 1087.79 983.506 1086.62C976.969 1085.14 970 1084.18 963.58 1081.22C948.991 1075.13 942.247 1060.2 952.864 1047.2C944.301 1060.37 950.871 1073.39 964.746 1078.6C975.28 1083.51 990.941 1080.61 998.317 1091.43C1005.23 1102.88 998.722 1118.92 986.313 1123.38C968.4 1130.86 946.536 1119.66 953.743 1098.27Z" fill="url(#paint37_linear_1240_6620)" fill-opacity="0.75"/>
<path d="M978.721 1131.58C1007.15 1130.13 1029.03 1105.91 1027.58 1077.48C1026.13 1049.05 1001.91 1027.17 973.481 1028.62C945.05 1030.07 923.175 1054.29 924.622 1082.72C926.069 1111.15 950.29 1133.03 978.721 1131.58Z" stroke="url(#paint38_linear_1240_6620)" stroke-opacity="0.75" stroke-miterlimit="10"/>
</g>
<g filter="url(#filter0_f_1240_6620)">
<circle cx="1103" cy="35" r="97" fill="url(#paint39_linear_1240_6620)" fill-opacity="0.5"/>
</g>
<g filter="url(#filter1_f_1240_6620)">
<circle cx="1031" cy="656" r="97" fill="url(#paint40_linear_1240_6620)" fill-opacity="0.5"/>
</g>
<g filter="url(#filter2_f_1240_6620)">
<circle cx="-10" cy="712" r="97" fill="url(#paint41_linear_1240_6620)" fill-opacity="0.5"/>
</g>
<g filter="url(#filter3_f_1240_6620)">
<circle cx="1739" cy="500" r="97" fill="url(#paint42_linear_1240_6620)" fill-opacity="0.5"/>
</g>
<g filter="url(#filter4_f_1240_6620)">
<circle cx="1549" cy="1074" r="97" fill="url(#paint43_linear_1240_6620)" fill-opacity="0.5"/>
</g>
<g filter="url(#filter5_f_1240_6620)">
<circle cx="669" cy="104" r="50" fill="url(#paint44_linear_1240_6620)" fill-opacity="0.35"/>
</g>
<g filter="url(#filter6_f_1240_6620)">
<circle cx="50" r="50" fill="url(#paint45_linear_1240_6620)" fill-opacity="0.35"/>
</g>
<g filter="url(#filter7_f_1240_6620)">
<circle cx="500" cy="609" r="50" fill="url(#paint46_linear_1240_6620)" fill-opacity="0.35"/>
</g>
<g filter="url(#filter8_f_1240_6620)">
<circle cx="1402" cy="577" r="50" fill="url(#paint47_linear_1240_6620)" fill-opacity="0.35"/>
</g>
<g filter="url(#filter9_f_1240_6620)">
<circle cx="647" cy="1036" r="50" fill="url(#paint48_linear_1240_6620)" fill-opacity="0.35"/>
</g>
<g filter="url(#filter10_f_1240_6620)">
<circle cx="1564" cy="166" r="50" fill="url(#paint49_linear_1240_6620)" fill-opacity="0.35"/>
</g>
<g filter="url(#filter11_f_1240_6620)">
<circle cx="1051" cy="413" r="25" fill="url(#paint50_linear_1240_6620)" fill-opacity="0.15"/>
</g>
<g filter="url(#filter12_f_1240_6620)">
<circle cx="89" cy="353" r="25" fill="url(#paint51_linear_1240_6620)" fill-opacity="0.15"/>
</g>
<g filter="url(#filter13_f_1240_6620)">
<circle cx="1867" cy="42" r="25" fill="url(#paint52_linear_1240_6620)" fill-opacity="0.15"/>
</g>
<g filter="url(#filter14_f_1240_6620)">
<circle cx="850" cy="893" r="25" fill="url(#paint53_linear_1240_6620)" fill-opacity="0.15"/>
</g>
<g filter="url(#filter15_f_1240_6620)">
<circle cx="1726" cy="915" r="25" fill="url(#paint54_linear_1240_6620)" fill-opacity="0.15"/>
</g>
<g filter="url(#filter16_f_1240_6620)">
<circle cx="224" cy="910" r="25" fill="url(#paint55_linear_1240_6620)" fill-opacity="0.15"/>
</g>
<g filter="url(#filter17_f_1240_6620)">
<circle cx="447" cy="97" r="25" fill="url(#paint56_linear_1240_6620)" fill-opacity="0.15"/>
</g>
<g filter="url(#filter18_f_1240_6620)">
<circle cx="1385" cy="147" r="25" fill="url(#paint57_linear_1240_6620)" fill-opacity="0.15"/>
</g>
<g filter="url(#filter19_f_1240_6620)">
<circle cx="321" cy="341" r="97" fill="url(#paint58_linear_1240_6620)" fill-opacity="0.5"/>
</g>
<path d="M663.945 483.045C694.745 370.282 504.855 371.491 520.509 478.591C523.755 500.545 542.782 511.873 562.891 516.773C584.4 522.818 607.436 527.209 628.309 538.155C675.845 560.873 695.764 611.718 658.218 653.209C688.955 610.955 669.291 566.473 623.982 547.064C589.745 529.055 537.118 536.055 514.718 498.764C493.655 459.245 518.027 406.682 560.091 394.018C620.991 372.318 691.882 413.618 664.264 483.109L663.945 483.045Z" fill="white"/>
<path d="M505.491 596.7C474.691 709.464 664.582 708.255 648.927 601.155C645.682 579.2 626.655 567.873 606.545 562.973C585.036 556.927 562 552.536 541.127 541.591C493.591 518.873 473.673 468.027 511.218 426.536C480.482 468.918 500.145 513.4 545.455 533.064C579.691 551.2 632.318 544.2 655.036 581.491C676.1 620.755 651.727 673.064 609.664 685.791C548.764 707.682 477.873 666.7 505.491 596.7Z" fill="white"/>
<path d="M583 711.818C677.893 711.818 754.818 634.893 754.818 540C754.818 445.107 677.893 368.182 583 368.182C488.107 368.182 411.182 445.107 411.182 540C411.182 634.893 488.107 711.818 583 711.818Z" stroke="white" stroke-miterlimit="10"/>
<path d="M853.488 566.192C853.488 571.653 852.123 576.261 849.392 580.016C846.661 583.685 842.907 586.501 838.128 588.464C833.349 590.341 827.888 591.28 821.744 591.28C816.283 591.28 811.504 590.896 807.408 590.128C803.312 589.36 799.813 588.379 796.912 587.184V579.888C800.155 581.168 803.909 582.32 808.176 583.344C812.528 584.283 817.221 584.752 822.256 584.752C829.253 584.752 834.928 583.259 839.28 580.272C843.717 577.2 845.936 572.677 845.936 566.704C845.936 563.12 845.083 560.176 843.376 557.872C841.755 555.483 839.195 553.435 835.696 551.728C832.283 549.936 827.888 548.144 822.512 546.352C817.392 544.56 812.997 542.64 809.328 540.592C805.659 538.459 802.843 535.813 800.88 532.656C798.917 529.413 797.936 525.36 797.936 520.496C797.936 515.461 799.173 511.237 801.648 507.824C804.208 504.411 807.664 501.808 812.016 500.016C816.453 498.224 821.488 497.328 827.12 497.328C831.557 497.328 835.781 497.755 839.792 498.608C843.803 499.461 847.6 500.656 851.184 502.192L848.624 508.592C841.456 505.52 834.203 503.984 826.864 503.984C820.549 503.984 815.387 505.392 811.376 508.208C807.451 510.939 805.488 514.992 805.488 520.368C805.488 524.293 806.341 527.451 808.048 529.84C809.755 532.144 812.229 534.107 815.472 535.728C818.715 537.349 822.683 538.971 827.376 540.592C832.752 542.469 837.36 544.475 841.2 546.608C845.125 548.656 848.155 551.216 850.288 554.288C852.421 557.36 853.488 561.328 853.488 566.192ZM928.099 555.952C928.099 563.035 926.904 569.221 924.515 574.512C922.211 579.803 918.755 583.941 914.147 586.928C909.624 589.829 904.078 591.28 897.507 591.28C891.192 591.28 885.774 589.829 881.251 586.928C876.728 584.027 873.23 579.931 870.755 574.64C868.366 569.349 867.171 563.12 867.171 555.952C867.171 544.859 869.902 536.197 875.363 529.968C880.91 523.739 888.462 520.624 898.019 520.624C904.504 520.624 909.966 522.117 914.403 525.104C918.926 528.005 922.339 532.101 924.643 537.392C926.947 542.683 928.099 548.869 928.099 555.952ZM874.723 555.952C874.723 564.656 876.558 571.696 880.227 577.072C883.896 582.363 889.656 585.008 897.507 585.008C905.443 585.008 911.246 582.363 914.915 577.072C918.67 571.696 920.547 564.656 920.547 555.952C920.547 550.32 919.779 545.328 918.243 540.976C916.707 536.624 914.275 533.211 910.947 530.736C907.619 528.261 903.267 527.024 897.891 527.024C890.126 527.024 884.323 529.584 880.483 534.704C876.643 539.824 874.723 546.907 874.723 555.952ZM1000.27 521.904V590H994.255L993.231 578.352H992.847C990.97 582.021 988.068 585.093 984.143 587.568C980.303 590.043 975.482 591.28 969.679 591.28C953.636 591.28 945.615 583.003 945.615 566.448V521.904H953.039V565.936C953.039 572.421 954.49 577.243 957.391 580.4C960.292 583.472 964.644 585.008 970.447 585.008C985.466 585.008 992.975 576.347 992.975 559.024V521.904H1000.27ZM1053.35 520.624C1061.12 520.624 1067.05 522.629 1071.15 526.64C1075.24 530.651 1077.29 536.923 1077.29 545.456V590H1069.99V545.968C1069.99 539.483 1068.5 534.704 1065.51 531.632C1062.61 528.56 1058.3 527.024 1052.59 527.024C1037.57 527.024 1030.06 535.643 1030.06 552.88V590H1022.89V521.904H1028.78L1029.8 533.68H1030.31C1032.11 529.925 1034.92 526.811 1038.76 524.336C1042.69 521.861 1047.55 520.624 1053.35 520.624ZM1123.59 591.28C1114.46 591.28 1107.42 588.379 1102.47 582.576C1097.6 576.688 1095.17 568.069 1095.17 556.72C1095.17 544.944 1097.73 535.984 1102.85 529.84C1108.06 523.696 1115.18 520.624 1124.23 520.624C1129.94 520.624 1134.6 521.861 1138.18 524.336C1141.76 526.811 1144.41 529.925 1146.12 533.68H1146.63C1146.54 531.632 1146.41 529.371 1146.24 526.896C1146.16 524.421 1146.12 522.245 1146.12 520.368V492.72H1153.41V590H1147.52L1146.5 578.224H1146.12C1144.32 581.808 1141.64 584.88 1138.05 587.44C1134.47 590 1129.65 591.28 1123.59 591.28ZM1124.48 585.008C1132.33 585.008 1137.92 582.619 1141.25 577.84C1144.58 573.061 1146.24 566.192 1146.24 557.232V555.952C1146.24 546.565 1144.58 539.397 1141.25 534.448C1137.92 529.413 1132.5 526.896 1125 526.896C1117.66 526.896 1112.11 529.499 1108.36 534.704C1104.6 539.824 1102.72 547.163 1102.72 556.72C1102.72 566.021 1104.52 573.061 1108.1 577.84C1111.68 582.619 1117.14 585.008 1124.48 585.008ZM1227.99 566.192C1227.99 571.653 1226.62 576.261 1223.89 580.016C1221.16 583.685 1217.41 586.501 1212.63 588.464C1207.85 590.341 1202.39 591.28 1196.24 591.28C1190.78 591.28 1186 590.896 1181.91 590.128C1177.81 589.36 1174.31 588.379 1171.41 587.184V579.888C1174.65 581.168 1178.41 582.32 1182.68 583.344C1187.03 584.283 1191.72 584.752 1196.76 584.752C1203.75 584.752 1209.43 583.259 1213.78 580.272C1218.22 577.2 1220.44 572.677 1220.44 566.704C1220.44 563.12 1219.58 560.176 1217.88 557.872C1216.25 555.483 1213.69 553.435 1210.2 551.728C1206.78 549.936 1202.39 548.144 1197.01 546.352C1191.89 544.56 1187.5 542.64 1183.83 540.592C1180.16 538.459 1177.34 535.813 1175.38 532.656C1173.42 529.413 1172.44 525.36 1172.44 520.496C1172.44 515.461 1173.67 511.237 1176.15 507.824C1178.71 504.411 1182.16 501.808 1186.52 500.016C1190.95 498.224 1195.99 497.328 1201.62 497.328C1206.06 497.328 1210.28 497.755 1214.29 498.608C1218.3 499.461 1222.1 500.656 1225.68 502.192L1223.12 508.592C1215.96 505.52 1208.7 503.984 1201.36 503.984C1195.05 503.984 1189.89 505.392 1185.88 508.208C1181.95 510.939 1179.99 514.992 1179.99 520.368C1179.99 524.293 1180.84 527.451 1182.55 529.84C1184.25 532.144 1186.73 534.107 1189.97 535.728C1193.21 537.349 1197.18 538.971 1201.88 540.592C1207.25 542.469 1211.86 544.475 1215.7 546.608C1219.63 548.656 1222.65 551.216 1224.79 554.288C1226.92 557.36 1227.99 561.328 1227.99 566.192ZM1272.9 591.28C1262.92 591.28 1255.2 588.251 1249.74 582.192C1244.36 576.048 1241.67 567.429 1241.67 556.336C1241.67 548.741 1243.04 542.299 1245.77 537.008C1248.5 531.632 1252.3 527.579 1257.16 524.848C1262.11 522.032 1267.83 520.624 1274.31 520.624C1277.64 520.624 1280.71 520.923 1283.53 521.52C1286.43 522.117 1288.99 522.928 1291.21 523.952L1289.16 530.352C1284.38 528.219 1279.43 527.152 1274.31 527.152C1266.29 527.152 1260.1 529.755 1255.75 534.96C1251.4 540.165 1249.22 547.248 1249.22 556.208C1249.22 564.741 1251.14 571.653 1254.98 576.944C1258.82 582.235 1264.75 584.88 1272.78 584.88C1276.19 584.88 1279.39 584.539 1282.38 583.856C1285.36 583.173 1288.05 582.277 1290.44 581.168V587.696C1288.22 588.805 1285.66 589.659 1282.76 590.256C1279.86 590.939 1276.57 591.28 1272.9 591.28ZM1330.58 520.752C1338.26 520.752 1343.98 522.629 1347.73 526.384C1351.48 530.139 1353.36 536.069 1353.36 544.176V590H1347.86L1346.45 578.48H1346.19C1343.8 582.32 1340.82 585.435 1337.23 587.824C1333.65 590.128 1328.7 591.28 1322.39 591.28C1315.9 591.28 1310.74 589.659 1306.9 586.416C1303.14 583.173 1301.27 578.437 1301.27 572.208C1301.27 565.467 1304 560.304 1309.46 556.72C1315 553.136 1323.11 551.131 1333.78 550.704L1346.19 550.064V545.328C1346.19 538.587 1344.83 533.851 1342.1 531.12C1339.45 528.304 1335.53 526.896 1330.32 526.896C1326.82 526.896 1323.45 527.365 1320.21 528.304C1316.97 529.157 1313.72 530.437 1310.48 532.144L1308.18 526.256C1311.34 524.635 1314.83 523.312 1318.67 522.288C1322.51 521.264 1326.48 520.752 1330.58 520.752ZM1346.19 555.696L1334.67 556.208C1325.97 556.549 1319.48 558.043 1315.22 560.688C1310.95 563.248 1308.82 567.131 1308.82 572.336C1308.82 576.517 1310.14 579.717 1312.79 581.936C1315.43 584.069 1319.06 585.136 1323.67 585.136C1330.75 585.136 1336.21 583.131 1340.05 579.12C1343.98 575.109 1346.02 569.477 1346.19 562.224V555.696ZM1405.6 520.624C1414.31 520.624 1421.09 523.568 1425.96 529.456C1430.9 535.259 1433.38 543.963 1433.38 555.568C1433.38 567.173 1430.82 576.048 1425.7 582.192C1420.66 588.251 1413.75 591.28 1404.96 591.28C1398.9 591.28 1394.04 590 1390.37 587.44C1386.79 584.88 1384.14 581.808 1382.44 578.224H1381.92C1382.01 580.443 1382.09 582.789 1382.18 585.264C1382.35 587.739 1382.44 590.085 1382.44 592.304V620.208H1375.14V521.904H1381.16L1382.05 534.704H1382.44C1384.14 530.949 1386.83 527.664 1390.5 524.848C1394.25 522.032 1399.29 520.624 1405.6 520.624ZM1404.58 527.024C1397.07 527.024 1391.52 529.413 1387.94 534.192C1384.36 538.885 1382.52 545.712 1382.44 554.672V555.952C1382.44 565.68 1384.18 572.976 1387.68 577.84C1391.27 582.619 1396.73 585.008 1404.07 585.008C1411.06 585.008 1416.44 582.405 1420.2 577.2C1423.95 571.995 1425.83 564.741 1425.83 555.44C1425.83 546.309 1424.04 539.312 1420.45 534.448C1416.95 529.499 1411.66 527.024 1404.58 527.024ZM1477.62 520.624C1483.42 520.624 1488.29 521.989 1492.21 524.72C1496.14 527.365 1499.08 531.035 1501.04 535.728C1503.01 540.421 1503.99 545.797 1503.99 551.856V556.976H1455.35C1455.35 565.936 1457.44 572.848 1461.62 577.712C1465.8 582.491 1471.82 584.88 1479.67 584.88C1483.93 584.88 1487.65 584.539 1490.8 583.856C1493.96 583.173 1497.42 581.979 1501.17 580.272V586.928C1497.76 588.464 1494.39 589.573 1491.06 590.256C1487.73 590.939 1483.85 591.28 1479.41 591.28C1469.26 591.28 1461.45 588.165 1455.99 581.936C1450.53 575.707 1447.8 567.216 1447.8 556.464C1447.8 549.552 1448.95 543.408 1451.25 538.032C1453.64 532.571 1457.05 528.304 1461.49 525.232C1465.93 522.16 1471.31 520.624 1477.62 520.624ZM1477.49 526.768C1471.26 526.768 1466.19 528.859 1462.26 533.04C1458.42 537.221 1456.16 543.152 1455.48 550.832H1496.31C1496.31 543.664 1494.77 537.861 1491.7 533.424C1488.71 528.987 1483.98 526.768 1477.49 526.768Z" fill="white"/>
</g>
<defs>
<filter id="filter0_f_1240_6620" x="976" y="-92" width="254" height="254" filterUnits="userSpaceOnUse" color-interpolation-filters="sRGB">
<feFlood flood-opacity="0" result="BackgroundImageFix"/>
<feBlend mode="normal" in="SourceGraphic" in2="BackgroundImageFix" result="shape"/>
<feGaussianBlur stdDeviation="15" result="effect1_foregroundBlur_1240_6620"/>
</filter>
<filter id="filter1_f_1240_6620" x="904" y="529" width="254" height="254" filterUnits="userSpaceOnUse" color-interpolation-filters="sRGB">
<feFlood flood-opacity="0" result="BackgroundImageFix"/>
<feBlend mode="normal" in="SourceGraphic" in2="BackgroundImageFix" result="shape"/>
<feGaussianBlur stdDeviation="15" result="effect1_foregroundBlur_1240_6620"/>
</filter>
<filter id="filter2_f_1240_6620" x="-137" y="585" width="254" height="254" filterUnits="userSpaceOnUse" color-interpolation-filters="sRGB">
<feFlood flood-opacity="0" result="BackgroundImageFix"/>
<feBlend mode="normal" in="SourceGraphic" in2="BackgroundImageFix" result="shape"/>
<feGaussianBlur stdDeviation="15" result="effect1_foregroundBlur_1240_6620"/>
</filter>
<filter id="filter3_f_1240_6620" x="1612" y="373" width="254" height="254" filterUnits="userSpaceOnUse" color-interpolation-filters="sRGB">
<feFlood flood-opacity="0" result="BackgroundImageFix"/>
<feBlend mode="normal" in="SourceGraphic" in2="BackgroundImageFix" result="shape"/>
<feGaussianBlur stdDeviation="15" result="effect1_foregroundBlur_1240_6620"/>
</filter>
<filter id="filter4_f_1240_6620" x="1422" y="947" width="254" height="254" filterUnits="userSpaceOnUse" color-interpolation-filters="sRGB">
<feFlood flood-opacity="0" result="BackgroundImageFix"/>
<feBlend mode="normal" in="SourceGraphic" in2="BackgroundImageFix" result="shape"/>
<feGaussianBlur stdDeviation="15" result="effect1_foregroundBlur_1240_6620"/>
</filter>
<filter id="filter5_f_1240_6620" x="589" y="24" width="160" height="160" filterUnits="userSpaceOnUse" color-interpolation-filters="sRGB">
<feFlood flood-opacity="0" result="BackgroundImageFix"/>
<feBlend mode="normal" in="SourceGraphic" in2="BackgroundImageFix" result="shape"/>
<feGaussianBlur stdDeviation="15" result="effect1_foregroundBlur_1240_6620"/>
</filter>
<filter id="filter6_f_1240_6620" x="-30" y="-80" width="160" height="160" filterUnits="userSpaceOnUse" color-interpolation-filters="sRGB">
<feFlood flood-opacity="0" result="BackgroundImageFix"/>
<feBlend mode="normal" in="SourceGraphic" in2="BackgroundImageFix" result="shape"/>
<feGaussianBlur stdDeviation="15" result="effect1_foregroundBlur_1240_6620"/>
</filter>
<filter id="filter7_f_1240_6620" x="420" y="529" width="160" height="160" filterUnits="userSpaceOnUse" color-interpolation-filters="sRGB">
<feFlood flood-opacity="0" result="BackgroundImageFix"/>
<feBlend mode="normal" in="SourceGraphic" in2="BackgroundImageFix" result="shape"/>
<feGaussianBlur stdDeviation="15" result="effect1_foregroundBlur_1240_6620"/>
</filter>
<filter id="filter8_f_1240_6620" x="1322" y="497" width="160" height="160" filterUnits="userSpaceOnUse" color-interpolation-filters="sRGB">
<feFlood flood-opacity="0" result="BackgroundImageFix"/>
<feBlend mode="normal" in="SourceGraphic" in2="BackgroundImageFix" result="shape"/>
<feGaussianBlur stdDeviation="15" result="effect1_foregroundBlur_1240_6620"/>
</filter>
<filter id="filter9_f_1240_6620" x="567" y="956" width="160" height="160" filterUnits="userSpaceOnUse" color-interpolation-filters="sRGB">
<feFlood flood-opacity="0" result="BackgroundImageFix"/>
<feBlend mode="normal" in="SourceGraphic" in2="BackgroundImageFix" result="shape"/>
<feGaussianBlur stdDeviation="15" result="effect1_foregroundBlur_1240_6620"/>
</filter>
<filter id="filter10_f_1240_6620" x="1484" y="86" width="160" height="160" filterUnits="userSpaceOnUse" color-interpolation-filters="sRGB">
<feFlood flood-opacity="0" result="BackgroundImageFix"/>
<feBlend mode="normal" in="SourceGraphic" in2="BackgroundImageFix" result="shape"/>
<feGaussianBlur stdDeviation="15" result="effect1_foregroundBlur_1240_6620"/>
</filter>
<filter id="filter11_f_1240_6620" x="996" y="358" width="110" height="110" filterUnits="userSpaceOnUse" color-interpolation-filters="sRGB">
<feFlood flood-opacity="0" result="BackgroundImageFix"/>
<feBlend mode="normal" in="SourceGraphic" in2="BackgroundImageFix" result="shape"/>
<feGaussianBlur stdDeviation="15" result="effect1_foregroundBlur_1240_6620"/>
</filter>
<filter id="filter12_f_1240_6620" x="34" y="298" width="110" height="110" filterUnits="userSpaceOnUse" color-interpolation-filters="sRGB">
<feFlood flood-opacity="0" result="BackgroundImageFix"/>
<feBlend mode="normal" in="SourceGraphic" in2="BackgroundImageFix" result="shape"/>
<feGaussianBlur stdDeviation="15" result="effect1_foregroundBlur_1240_6620"/>
</filter>
<filter id="filter13_f_1240_6620" x="1812" y="-13" width="110" height="110" filterUnits="userSpaceOnUse" color-interpolation-filters="sRGB">
<feFlood flood-opacity="0" result="BackgroundImageFix"/>
<feBlend mode="normal" in="SourceGraphic" in2="BackgroundImageFix" result="shape"/>
<feGaussianBlur stdDeviation="15" result="effect1_foregroundBlur_1240_6620"/>
</filter>
<filter id="filter14_f_1240_6620" x="795" y="838" width="110" height="110" filterUnits="userSpaceOnUse" color-interpolation-filters="sRGB">
<feFlood flood-opacity="0" result="BackgroundImageFix"/>
<feBlend mode="normal" in="SourceGraphic" in2="BackgroundImageFix" result="shape"/>
<feGaussianBlur stdDeviation="15" result="effect1_foregroundBlur_1240_6620"/>
</filter>
<filter id="filter15_f_1240_6620" x="1671" y="860" width="110" height="110" filterUnits="userSpaceOnUse" color-interpolation-filters="sRGB">
<feFlood flood-opacity="0" result="BackgroundImageFix"/>
<feBlend mode="normal" in="SourceGraphic" in2="BackgroundImageFix" result="shape"/>
<feGaussianBlur stdDeviation="15" result="effect1_foregroundBlur_1240_6620"/>
</filter>
<filter id="filter16_f_1240_6620" x="169" y="855" width="110" height="110" filterUnits="userSpaceOnUse" color-interpolation-filters="sRGB">
<feFlood flood-opacity="0" result="BackgroundImageFix"/>
<feBlend mode="normal" in="SourceGraphic" in2="BackgroundImageFix" result="shape"/>
<feGaussianBlur stdDeviation="15" result="effect1_foregroundBlur_1240_6620"/>
</filter>
<filter id="filter17_f_1240_6620" x="392" y="42" width="110" height="110" filterUnits="userSpaceOnUse" color-interpolation-filters="sRGB">
<feFlood flood-opacity="0" result="BackgroundImageFix"/>
<feBlend mode="normal" in="SourceGraphic" in2="BackgroundImageFix" result="shape"/>
<feGaussianBlur stdDeviation="15" result="effect1_foregroundBlur_1240_6620"/>
</filter>
<filter id="filter18_f_1240_6620" x="1330" y="92" width="110" height="110" filterUnits="userSpaceOnUse" color-interpolation-filters="sRGB">
<feFlood flood-opacity="0" result="BackgroundImageFix"/>
<feBlend mode="normal" in="SourceGraphic" in2="BackgroundImageFix" result="shape"/>
<feGaussianBlur stdDeviation="15" result="effect1_foregroundBlur_1240_6620"/>
</filter>
<filter id="filter19_f_1240_6620" x="194" y="214" width="254" height="254" filterUnits="userSpaceOnUse" color-interpolation-filters="sRGB">
<feFlood flood-opacity="0" result="BackgroundImageFix"/>
<feBlend mode="normal" in="SourceGraphic" in2="BackgroundImageFix" result="shape"/>
<feGaussianBlur stdDeviation="15" result="effect1_foregroundBlur_1240_6620"/>
</filter>
<linearGradient id="paint0_linear_1240_6620" x1="58.9594" y1="972.01" x2="26.7456" y2="1084.85" gradientUnits="userSpaceOnUse">
<stop stop-color="#660273"/>
<stop offset="1" stop-color="#010324"/>
</linearGradient>
<linearGradient id="paint1_linear_1240_6620" x1="47.8164" y1="986.475" x2="15.5814" y2="1099.39" gradientUnits="userSpaceOnUse">
<stop stop-color="#660273"/>
<stop offset="1" stop-color="#010324"/>
</linearGradient>
<linearGradient id="paint2_linear_1240_6620" x1="57.3873" y1="962.332" x2="15.6127" y2="1108.67" gradientUnits="userSpaceOnUse">
<stop stop-color="#660273"/>
<stop offset="1" stop-color="#010324"/>
</linearGradient>
<linearGradient id="paint3_linear_1240_6620" x1="213.426" y1="491.792" x2="243.799" y2="605.145" gradientUnits="userSpaceOnUse">
<stop stop-color="#660273"/>
<stop offset="1" stop-color="#010324"/>
</linearGradient>
<linearGradient id="paint4_linear_1240_6620" x1="211.304" y1="509.928" x2="241.697" y2="623.356" gradientUnits="userSpaceOnUse">
<stop stop-color="#660273"/>
<stop offset="1" stop-color="#010324"/>
</linearGradient>
<linearGradient id="paint5_linear_1240_6620" x1="207.103" y1="484.299" x2="246.491" y2="631.295" gradientUnits="userSpaceOnUse">
<stop stop-color="#660273"/>
<stop offset="1" stop-color="#010324"/>
</linearGradient>
<linearGradient id="paint6_linear_1240_6620" x1="913.73" y1="185.52" x2="833.84" y2="271.479" gradientUnits="userSpaceOnUse">
<stop stop-color="#660273"/>
<stop offset="1" stop-color="#010324"/>
</linearGradient>
<linearGradient id="paint7_linear_1240_6620" x1="897.239" y1="193.358" x2="817.295" y2="279.374" gradientUnits="userSpaceOnUse">
<stop stop-color="#660273"/>
<stop offset="1" stop-color="#010324"/>
</linearGradient>
<linearGradient id="paint8_linear_1240_6620" x1="916.719" y1="176.182" x2="813.117" y2="287.654" gradientUnits="userSpaceOnUse">
<stop stop-color="#660273"/>
<stop offset="1" stop-color="#010324"/>
</linearGradient>
<linearGradient id="paint9_linear_1240_6620" x1="1932.34" y1="985.13" x2="1852.45" y2="1071.09" gradientUnits="userSpaceOnUse">
<stop stop-color="#660273"/>
<stop offset="1" stop-color="#010324"/>
</linearGradient>
<linearGradient id="paint10_linear_1240_6620" x1="1915.85" y1="992.968" x2="1835.91" y2="1078.98" gradientUnits="userSpaceOnUse">
<stop stop-color="#660273"/>
<stop offset="1" stop-color="#010324"/>
</linearGradient>
<linearGradient id="paint11_linear_1240_6620" x1="1935.33" y1="975.792" x2="1831.73" y2="1087.26" gradientUnits="userSpaceOnUse">
<stop stop-color="#660273"/>
<stop offset="1" stop-color="#010324"/>
</linearGradient>
<linearGradient id="paint12_linear_1240_6620" x1="1240.35" y1="696.484" x2="1211.04" y2="810.116" gradientUnits="userSpaceOnUse">
<stop stop-color="#660273"/>
<stop offset="1" stop-color="#010324"/>
</linearGradient>
<linearGradient id="paint13_linear_1240_6620" x1="1229.59" y1="711.23" x2="1200.25" y2="824.937" gradientUnits="userSpaceOnUse">
<stop stop-color="#660273"/>
<stop offset="1" stop-color="#010324"/>
</linearGradient>
<linearGradient id="paint14_linear_1240_6620" x1="1238.54" y1="686.85" x2="1200.52" y2="834.207" gradientUnits="userSpaceOnUse">
<stop stop-color="#660273"/>
<stop offset="1" stop-color="#010324"/>
</linearGradient>
<linearGradient id="paint15_linear_1240_6620" x1="1715.88" y1="84.8195" x2="1785.5" y2="179.289" gradientUnits="userSpaceOnUse">
<stop stop-color="#660273"/>
<stop offset="1" stop-color="#010324"/>
</linearGradient>
<linearGradient id="paint16_linear_1240_6620" x1="1720.52" y1="102.48" x2="1790.18" y2="197.012" gradientUnits="userSpaceOnUse">
<stop stop-color="#660273"/>
<stop offset="1" stop-color="#010324"/>
</linearGradient>
<linearGradient id="paint17_linear_1240_6620" x1="1707.26" y1="80.1485" x2="1797.54" y2="202.656" gradientUnits="userSpaceOnUse">
<stop stop-color="#660273"/>
<stop offset="1" stop-color="#010324"/>
</linearGradient>
<linearGradient id="paint18_linear_1240_6620" x1="208.649" y1="93.6643" x2="146.228" y2="193.038" gradientUnits="userSpaceOnUse">
<stop stop-color="#660273"/>
<stop offset="1" stop-color="#010324"/>
</linearGradient>
<linearGradient id="paint19_linear_1240_6620" x1="193.913" y1="104.446" x2="131.45" y2="203.885" gradientUnits="userSpaceOnUse">
<stop stop-color="#660273"/>
<stop offset="1" stop-color="#010324"/>
</linearGradient>
<linearGradient id="paint20_linear_1240_6620" x1="209.84" y1="83.9325" x2="128.892" y2="212.8" gradientUnits="userSpaceOnUse">
<stop stop-color="#660273"/>
<stop offset="1" stop-color="#010324"/>
</linearGradient>
<linearGradient id="paint21_linear_1240_6620" x1="497.483" y1="167.764" x2="501.524" y2="247.158" gradientUnits="userSpaceOnUse">
<stop stop-color="#660273"/>
<stop offset="1" stop-color="#010324"/>
</linearGradient>
<linearGradient id="paint22_linear_1240_6620" x1="493.505" y1="179.476" x2="497.549" y2="258.922" gradientUnits="userSpaceOnUse">
<stop stop-color="#660273"/>
<stop offset="1" stop-color="#010324"/>
</linearGradient>
<linearGradient id="paint23_linear_1240_6620" x1="494.358" y1="161.904" x2="499.598" y2="264.861" gradientUnits="userSpaceOnUse">
<stop stop-color="#660273"/>
<stop offset="1" stop-color="#010324"/>
</linearGradient>
<linearGradient id="paint24_linear_1240_6620" x1="674.975" y1="591.768" x2="688.779" y2="670.057" gradientUnits="userSpaceOnUse">
<stop stop-color="#660273"/>
<stop offset="1" stop-color="#010324"/>
</linearGradient>
<linearGradient id="paint25_linear_1240_6620" x1="672.472" y1="603.882" x2="686.285" y2="682.222" gradientUnits="userSpaceOnUse">
<stop stop-color="#660273"/>
<stop offset="1" stop-color="#010324"/>
</linearGradient>
<linearGradient id="paint26_linear_1240_6620" x1="671.15" y1="586.338" x2="689.052" y2="687.863" gradientUnits="userSpaceOnUse">
<stop stop-color="#660273"/>
<stop offset="1" stop-color="#010324"/>
</linearGradient>
<linearGradient id="paint27_linear_1240_6620" x1="1343.61" y1="224.105" x2="1292.37" y2="284.889" gradientUnits="userSpaceOnUse">
<stop stop-color="#660273"/>
<stop offset="1" stop-color="#010324"/>
</linearGradient>
<linearGradient id="paint28_linear_1240_6620" x1="1332.7" y1="229.949" x2="1281.44" y2="290.774" gradientUnits="userSpaceOnUse">
<stop stop-color="#660273"/>
<stop offset="1" stop-color="#010324"/>
</linearGradient>
<linearGradient id="paint29_linear_1240_6620" x1="1345.32" y1="217.688" x2="1278.88" y2="296.513" gradientUnits="userSpaceOnUse">
<stop stop-color="#660273"/>
<stop offset="1" stop-color="#010324"/>
</linearGradient>
<linearGradient id="paint30_linear_1240_6620" x1="1724.83" y1="747.669" x2="1658.16" y2="790.966" gradientUnits="userSpaceOnUse">
<stop stop-color="#660273"/>
<stop offset="1" stop-color="#010324"/>
</linearGradient>
<linearGradient id="paint31_linear_1240_6620" x1="1712.7" y1="750.098" x2="1645.98" y2="793.424" gradientUnits="userSpaceOnUse">
<stop stop-color="#660273"/>
<stop offset="1" stop-color="#010324"/>
</linearGradient>
<linearGradient id="paint32_linear_1240_6620" x1="1728.33" y1="742.027" x2="1641.87" y2="798.175" gradientUnits="userSpaceOnUse">
<stop stop-color="#660273"/>
<stop offset="1" stop-color="#010324"/>
</linearGradient>
<linearGradient id="paint33_linear_1240_6620" x1="384.079" y1="914.889" x2="452.925" y2="954.637" gradientUnits="userSpaceOnUse">
<stop stop-color="#660273"/>
<stop offset="1" stop-color="#010324"/>
</linearGradient>
<linearGradient id="paint34_linear_1240_6620" x1="391.75" y1="924.593" x2="460.641" y2="964.367" gradientUnits="userSpaceOnUse">
<stop stop-color="#660273"/>
<stop offset="1" stop-color="#010324"/>
</linearGradient>
<linearGradient id="paint35_linear_1240_6620" x1="377.461" y1="914.328" x2="466.741" y2="965.874" gradientUnits="userSpaceOnUse">
<stop stop-color="#660273"/>
<stop offset="1" stop-color="#010324"/>
</linearGradient>
<linearGradient id="paint36_linear_1240_6620" x1="976.606" y1="1034.48" x2="980.647" y2="1113.88" gradientUnits="userSpaceOnUse">
<stop stop-color="#660273"/>
<stop offset="1" stop-color="#010324"/>
</linearGradient>
<linearGradient id="paint37_linear_1240_6620" x1="972.628" y1="1046.19" x2="976.672" y2="1125.64" gradientUnits="userSpaceOnUse">
<stop stop-color="#660273"/>
<stop offset="1" stop-color="#010324"/>
</linearGradient>
<linearGradient id="paint38_linear_1240_6620" x1="973.481" y1="1028.62" x2="978.721" y2="1131.58" gradientUnits="userSpaceOnUse">
<stop stop-color="#660273"/>
<stop offset="1" stop-color="#010324"/>
</linearGradient>
<linearGradient id="paint39_linear_1240_6620" x1="1103" y1="-62" x2="1103" y2="132" gradientUnits="userSpaceOnUse">
<stop stop-color="#660273"/>
<stop offset="1" stop-color="#010324"/>
</linearGradient>
<linearGradient id="paint40_linear_1240_6620" x1="1031" y1="559" x2="1031" y2="753" gradientUnits="userSpaceOnUse">
<stop stop-color="#660273"/>
<stop offset="1" stop-color="#010324"/>
</linearGradient>
<linearGradient id="paint41_linear_1240_6620" x1="-10" y1="615" x2="-10" y2="809" gradientUnits="userSpaceOnUse">
<stop stop-color="#660273"/>
<stop offset="1" stop-color="#010324"/>
</linearGradient>
<linearGradient id="paint42_linear_1240_6620" x1="1739" y1="403" x2="1739" y2="597" gradientUnits="userSpaceOnUse">
<stop stop-color="#660273"/>
<stop offset="1" stop-color="#010324"/>
</linearGradient>
<linearGradient id="paint43_linear_1240_6620" x1="1549" y1="977" x2="1549" y2="1171" gradientUnits="userSpaceOnUse">
<stop stop-color="#660273"/>
<stop offset="1" stop-color="#010324"/>
</linearGradient>
<linearGradient id="paint44_linear_1240_6620" x1="669" y1="54" x2="669" y2="154" gradientUnits="userSpaceOnUse">
<stop stop-color="#660273"/>
<stop offset="1" stop-color="#010324"/>
</linearGradient>
<linearGradient id="paint45_linear_1240_6620" x1="50" y1="-50" x2="50" y2="50" gradientUnits="userSpaceOnUse">
<stop stop-color="#660273"/>
<stop offset="1" stop-color="#010324"/>
</linearGradient>
<linearGradient id="paint46_linear_1240_6620" x1="500" y1="559" x2="500" y2="659" gradientUnits="userSpaceOnUse">
<stop stop-color="#660273"/>
<stop offset="1" stop-color="#010324"/>
</linearGradient>
<linearGradient id="paint47_linear_1240_6620" x1="1402" y1="527" x2="1402" y2="627" gradientUnits="userSpaceOnUse">
<stop stop-color="#660273"/>
<stop offset="1" stop-color="#010324"/>
</linearGradient>
<linearGradient id="paint48_linear_1240_6620" x1="647" y1="986" x2="647" y2="1086" gradientUnits="userSpaceOnUse">
<stop stop-color="#660273"/>
<stop offset="1" stop-color="#010324"/>
</linearGradient>
<linearGradient id="paint49_linear_1240_6620" x1="1564" y1="116" x2="1564" y2="216" gradientUnits="userSpaceOnUse">
<stop stop-color="#660273"/>
<stop offset="1" stop-color="#010324"/>
</linearGradient>
<linearGradient id="paint50_linear_1240_6620" x1="1051" y1="388" x2="1051" y2="438" gradientUnits="userSpaceOnUse">
<stop stop-color="#660273"/>
<stop offset="1" stop-color="#010324"/>
</linearGradient>
<linearGradient id="paint51_linear_1240_6620" x1="89" y1="328" x2="89" y2="378" gradientUnits="userSpaceOnUse">
<stop stop-color="#660273"/>
<stop offset="1" stop-color="#010324"/>
</linearGradient>
<linearGradient id="paint52_linear_1240_6620" x1="1867" y1="17" x2="1867" y2="67" gradientUnits="userSpaceOnUse">
<stop stop-color="#660273"/>
<stop offset="1" stop-color="#010324"/>
</linearGradient>
<linearGradient id="paint53_linear_1240_6620" x1="850" y1="868" x2="850" y2="918" gradientUnits="userSpaceOnUse">
<stop stop-color="#660273"/>
<stop offset="1" stop-color="#010324"/>
</linearGradient>
<linearGradient id="paint54_linear_1240_6620" x1="1726" y1="890" x2="1726" y2="940" gradientUnits="userSpaceOnUse">
<stop stop-color="#660273"/>
<stop offset="1" stop-color="#010324"/>
</linearGradient>
<linearGradient id="paint55_linear_1240_6620" x1="224" y1="885" x2="224" y2="935" gradientUnits="userSpaceOnUse">
<stop stop-color="#660273"/>
<stop offset="1" stop-color="#010324"/>
</linearGradient>
<linearGradient id="paint56_linear_1240_6620" x1="447" y1="72" x2="447" y2="122" gradientUnits="userSpaceOnUse">
<stop stop-color="#660273"/>
<stop offset="1" stop-color="#010324"/>
</linearGradient>
<linearGradient id="paint57_linear_1240_6620" x1="1385" y1="122" x2="1385" y2="172" gradientUnits="userSpaceOnUse">
<stop stop-color="#660273"/>
<stop offset="1" stop-color="#010324"/>
</linearGradient>
<linearGradient id="paint58_linear_1240_6620" x1="321" y1="244" x2="321" y2="438" gradientUnits="userSpaceOnUse">
<stop stop-color="#660273"/>
<stop offset="1" stop-color="#010324"/>
</linearGradient>
<clipPath id="clip0_1240_6620">
<rect width="1920" height="1080" fill="white"/>
</clipPath>
<clipPath id="clip1_1240_6620">
<rect width="155" height="155" fill="white" transform="translate(-16.7488 939.703) rotate(15.9325)"/>
</clipPath>
<clipPath id="clip2_1240_6620">
<rect width="155" height="155" fill="white" transform="translate(131.879 502.996) rotate(-15)"/>
</clipPath>
<clipPath id="clip3_1240_6620">
<rect width="155" height="155" fill="white" transform="translate(860.91 122.389) rotate(42.9045)"/>
</clipPath>
<clipPath id="clip4_1240_6620">
<rect width="155" height="155" fill="white" transform="translate(1879.52 922) rotate(42.9045)"/>
</clipPath>
<clipPath id="clip5_1240_6620">
<rect width="155" height="155" fill="white" transform="translate(1163.84 666.126) rotate(14.4652)"/>
</clipPath>
<clipPath id="clip6_1240_6620">
<rect width="155" height="155" fill="white" transform="translate(1644.04 124.992) rotate(-36.3891)"/>
</clipPath>
<clipPath id="clip7_1240_6620">
<rect width="155" height="155" fill="white" transform="translate(144.963 41.5159) rotate(32.1349)"/>
</clipPath>
<clipPath id="clip8_1240_6620">
<rect width="105" height="105" fill="white" transform="translate(441.877 163.619) rotate(-2.91378)"/>
</clipPath>
<clipPath id="clip9_1240_6620">
<rect width="105" height="105" fill="white" transform="translate(619.282 594.515) rotate(-10)"/>
</clipPath>
<clipPath id="clip10_1240_6620">
<rect width="105" height="105" fill="white" transform="translate(1305.79 183.123) rotate(40.1274)"/>
</clipPath>
<clipPath id="clip11_1240_6620">
<rect width="105" height="105" fill="white" transform="translate(1700.54 697.477) rotate(57)"/>
</clipPath>
<clipPath id="clip12_1240_6620">
<rect width="105" height="105" fill="white" transform="translate(350.385 959.317) rotate(-60)"/>
</clipPath>
<clipPath id="clip13_1240_6620">
<rect width="105" height="105" fill="white" transform="translate(921 1030.34) rotate(-2.91378)"/>
</clipPath>
</defs>
</svg>
