<svg
   width="55"
   height="55"
   viewBox="0 0 55 55"
   fill="none"
   xmlns="http://www.w3.org/2000/svg">
  <rect width="55" height="55" fill="black"/>
  <path d="M40.22,18.55C45.06,0.83,15.22,1.02,17.68,17.85c0.51,3.45,3.5,5.23,6.66,6c3.38,0.95,7,1.64,10.28,3.36 c7.47,3.57,10.6,11.56,4.7,18.08c5.83-6.74,2.74-13.73-4.38-16.78c-5.38-2.83-13.65-1.73-17.17-7.59C13.46,14.81,17.29,6.55,23.9,4.56 c9.57-3.41,20.71,3.08,16.37,14H40.22z" fill="white"/>
  <path d="M15.32,36.41C10.48,54.13,40.32,53.94,37.86,37.11c-0.51-3.45-3.5-5.23-6.66-6c-3.38-0.95-7-1.64-10.28-3.36 c-7.47-3.57-10.6-11.56-4.7-18.08c-4.83,6.66-1.74,13.65,5.38,16.74c5.38,2.85,13.65,1.75,17.22,7.61 c3.31,6.17-0.52,14.39-7.13,16.39c-9.57,3.44-20.71-3-16.37-14H15.32z" fill="white"/>
  <circle cx="27.5" cy="27.5" r="27" stroke="white" stroke-miterlimit="10"/>
</svg>
