<?xml version="1.0" encoding="UTF-8" standalone="no"?>
<svg
   width="75"
   height="100"
   viewBox="0 0 55 55"
   preserveAspectRatio="xMidYMid meet"
   fill="none"
   version="1.1"
   id="svg1"
   sodipodi:docname="logo.svg"
   inkscape:version="1.3.2 (091e20e, 2023-11-25, custom)"
   xmlns:inkscape="http://www.inkscape.org/namespaces/inkscape"
   xmlns:sodipodi="http://sodipodi.sourceforge.net/DTD/sodipodi-0.dtd"
   xmlns:xlink="http://www.w3.org/1999/xlink"
   xmlns="http://www.w3.org/2000/svg"
   xmlns:svg="http://www.w3.org/2000/svg">
  <sodipodi:namedview
     id="namedview1"
     pagecolor="#000000"
     bordercolor="#000000"
     borderopacity="1"
     inkscape:showpageshadow="2"
     inkscape:pageopacity="0.0"
     inkscape:pagecheckerboard="0"
     inkscape:deskcolor="#d1d1d1"
     inkscape:zoom="11.313709"
     inkscape:cx="42.24963"
     inkscape:cy="44.503533"
     inkscape:window-width="2560"
     inkscape:window-height="1346"
     inkscape:window-x="-11"
     inkscape:window-y="-11"
     inkscape:window-maximized="1"
     inkscape:current-layer="svg1" />
  <defs
     id="defs1">
    <linearGradient
       id="linearGradient3"
       inkscape:collect="always">
      <stop
         style="stop-color:#9300d6;stop-opacity:0.58928573;"
         offset="0"
         id="stop3" />
      <stop
         style="stop-color:#7500e2;stop-opacity:0.99801588;"
         offset="1"
         id="stop4" />
    </linearGradient>
    <linearGradient
       id="linearGradient1"
       inkscape:collect="always">
      <stop
         style="stop-color:#f000c6;stop-opacity:1;"
         offset="0"
         id="stop1" />
      <stop
         style="stop-color:#810059;stop-opacity:0.41865081;"
         offset="1"
         id="stop2" />
    </linearGradient>
    <clipPath
       id="clip0_184_6719">
      <rect
         width="55"
         height="55"
         fill="#ffffff"
         id="rect1"
         x="0"
         y="0" />
    </clipPath>
    <linearGradient
       inkscape:collect="always"
       xlink:href="#linearGradient1"
       id="linearGradient2"
       x1="15.558106"
       y1="24.469467"
       x2="42.399957"
       y2="24.469467"
       gradientUnits="userSpaceOnUse" />
    <linearGradient
       inkscape:collect="always"
       xlink:href="#linearGradient3"
       id="linearGradient4"
       x1="13.140143"
       y1="30.504275"
       x2="40.031994"
       y2="30.504275"
       gradientUnits="userSpaceOnUse" />
  </defs>
  <rect
     style="fill:#000000;stroke-width:0.695433;paint-order:stroke fill markers"
     id="rect2"
     width="55"
     height="55"
     x="-0.0039050877"
     y="0.0039060265" />
  <g
     id="Лого 3 1"
     clip-path="url(#clip0_184_6719)"
     inkscape:label="Лого 3 1"
     transform="translate(-0.00652905,-0.0025744)">
    <path
       id="Vector"
       d="m 40.22,18.55 c 4.84,-17.72 -25,-17.53 -22.54,-0.7 0.51,3.45 3.5,5.23 6.66,6 3.38,0.95 7,1.64 10.28,3.36 7.47,3.57 10.6,11.56 4.7,18.08 C 44.15,38.65 41.06,31.66 33.94,28.61 28.56,25.78 20.29,26.88 16.77,21.02 13.46,14.81 17.29,6.55 23.9,4.56 c 9.57,-3.41 20.71,3.08 16.37,14 z"
       fill="#ffffff"
       style="fill:url(#linearGradient2)" />
    <path
       id="Vector_2"
       d="m 15.3201,36.41 c -4.84,17.72 25,17.53 22.54,0.7 -0.51,-3.45 -3.5,-5.23 -6.66,-6 -3.38,-0.95 -7,-1.64 -10.28,-3.36 -7.47,-3.57 -10.6,-11.56 -4.7,-18.08 -4.83,6.66 -1.74,13.65 5.38,16.74 5.38,2.85 13.65,1.75 17.22,7.61 3.31,6.17 -0.52,14.39 -7.13,16.39 -9.57,3.44 -20.71,-3 -16.37,-14 z"
       fill="#ffffff"
       inkscape:label="Vector_2"
       style="fill:url(#linearGradient4)" />
    <path
       id="Vector_3"
       d="m 27.5,54.5 c 14.9117,0 27,-12.0883 27,-27 0,-14.9117 -12.0883,-27 -27,-27 -14.9117,0 -27,12.0883 -27,27 0,14.9117 12.0883,27 27,27 z"
       stroke="#ffffff"
       stroke-miterlimit="10"
       inkscape:label="Vector_3"
       style="stroke:#7b0072;stroke-opacity:1" />
  </g>
</svg>
